<svg width="38" height="26" viewBox="0 0 38 26" fill="none" xmlns="http://www.w3.org/2000/svg">
<path d="M30.7417 25.6667C29.575 25.6667 28.6806 25.1712 28.0583 24.1803C27.4361 23.1879 27.3972 22.1667 27.9417 21.1167L30.3333 16.3333H25.6667C24.3833 16.3333 23.2851 15.876 22.372 14.9613C21.4573 14.0482 21 12.95 21 11.6667V4.66667C21 3.38333 21.4573 2.28511 22.372 1.372C23.2851 0.457333 24.3833 0 25.6667 0L32.6667 0C33.95 0 35.049 0.457333 35.9637 1.372C36.8768 2.28511 37.3333 3.38333 37.3333 4.66667V15.225C37.3333 15.575 37.3038 15.9351 37.2447 16.3053C37.1871 16.674 37.0611 17.0139 36.8667 17.325L33.5417 23.9167C33.2694 24.4611 32.8806 24.8889 32.375 25.2C31.8694 25.5111 31.325 25.6667 30.7417 25.6667ZM9.74167 25.6667C8.575 25.6667 7.68056 25.1712 7.05833 24.1803C6.43611 23.1879 6.39722 22.1667 6.94167 21.1167L9.33333 16.3333H4.66667C3.38333 16.3333 2.28511 15.876 1.372 14.9613C0.457333 14.0482 0 12.95 0 11.6667L0 4.66667C0 3.38333 0.457333 2.28511 1.372 1.372C2.28511 0.457333 3.38333 0 4.66667 0L11.6667 0C12.95 0 14.049 0.457333 14.9637 1.372C15.8768 2.28511 16.3333 3.38333 16.3333 4.66667V15.225C16.3333 15.575 16.3046 15.9351 16.247 16.3053C16.1879 16.674 16.0611 17.0139 15.8667 17.325L12.5417 23.9167C12.2694 24.4611 11.8806 24.8889 11.375 25.2C10.8694 25.5111 10.325 25.6667 9.74167 25.6667Z" fill="#EB5E2C"/>
</svg>
